<svg width="38" height="38" viewBox="0 0 38 38" fill="none" xmlns="http://www.w3.org/2000/svg">
<path d="M19 0C15.2422 0 11.5687 1.11433 8.44417 3.20208C5.31964 5.28982 2.88436 8.25722 1.4463 11.729C0.00823243 15.2008 -0.368031 19.0211 0.365088 22.7067C1.09821 26.3924 2.90778 29.7778 5.56498 32.435C8.22218 35.0922 11.6077 36.9018 15.2933 37.6349C18.9789 38.368 22.7992 37.9918 26.271 36.5537C29.7428 35.1156 32.7102 32.6804 34.7979 29.5558C36.8857 26.4313 38 22.7578 38 19C38 13.9609 35.9982 9.12816 32.435 5.56497C28.8718 2.00178 24.0391 0 19 0ZM27.2967 22.3567L22.8158 26.9167C22.5192 27.2116 22.1179 27.3771 21.6996 27.3771C21.2813 27.3771 20.88 27.2116 20.5833 26.9167C20.2884 26.62 20.1229 26.2187 20.1229 25.8004C20.1229 25.3821 20.2884 24.9808 20.5833 24.6842L24.5892 20.5833H10.8933C10.4734 20.5833 10.0707 20.4165 9.77376 20.1196C9.47682 19.8227 9.31001 19.4199 9.31001 19C9.31001 18.5801 9.47682 18.1773 9.77376 17.8804C10.0707 17.5835 10.4734 17.4167 10.8933 17.4167H24.5892L20.5833 13.395C20.4176 13.2531 20.283 13.0784 20.1879 12.882C20.0929 12.6855 20.0395 12.4716 20.0311 12.2535C20.0227 12.0354 20.0594 11.818 20.139 11.6148C20.2186 11.4116 20.3393 11.2271 20.4936 11.0728C20.6479 10.9185 20.8325 10.7978 21.0357 10.7182C21.2388 10.6386 21.4563 10.6018 21.6743 10.6102C21.8924 10.6187 22.1064 10.6721 22.3028 10.7671C22.4992 10.8621 22.6739 10.9968 22.8158 11.1625L27.2967 15.6433C28.1862 16.534 28.6858 17.7412 28.6858 19C28.6858 20.2588 28.1862 21.466 27.2967 22.3567Z" fill="#274590"/>
</svg>
